<?xml version="1.0" encoding="UTF-8"?>
<svg version="1.1" xmlns="http://www.w3.org/2000/svg" width="348" height="100">
<path d="M0 0 C2.97 0.33 5.94 0.66 9 1 C9.92151651 4.68606605 10.29808979 7.9727113 10.5625 11.75 C10.64628906 12.92046875 10.73007812 14.0909375 10.81640625 15.296875 C10.87699219 16.18890625 10.93757813 17.0809375 11 18 C11.598125 17.814375 12.19625 17.62875 12.8125 17.4375 C15 17 15 17 18 18 C19.134375 17.979375 20.26875 17.95875 21.4375 17.9375 C24.76400349 17.99585971 26.26464408 18.24937221 29 20 C28.9375 22.3125 28.9375 22.3125 28 25 C24.5625 26.625 24.5625 26.625 21 28 C20.01 29.485 20.01 29.485 19 31 C19.5775 31.28875 20.155 31.5775 20.75 31.875 C21.4925 32.24625 22.235 32.6175 23 33 C23.639375 33.309375 24.27875 33.61875 24.9375 33.9375 C25.618125 34.288125 26.29875 34.63875 27 35 C27.9075 35.433125 28.815 35.86625 29.75 36.3125 C30.4925 36.869375 31.235 37.42625 32 38 C32.3125 40.6875 32.3125 40.6875 32 43 C31.195625 43.2475 30.39125 43.495 29.5625 43.75 C22.65466639 46.17380127 16.30510771 49.25993486 10.04296875 53.046875 C8 54 8 54 4 54 C3.67 53.01 3.34 52.02 3 51 C1.94242135 48.31537726 1.39847957 47.23439975 -1.125 45.75 C-2.053125 45.37875 -2.053125 45.37875 -3 45 C-3 43.35 -3 41.7 -3 40 C-3.556875 40.61875 -3.556875 40.61875 -4.125 41.25 C-8.28174141 45.12962532 -12.20559401 47.88411188 -18 48 C-20.09886047 47.3939337 -22.06369152 46.65134541 -24.0703125 45.7890625 C-26.05446257 44.97772988 -27.88379466 44.35343722 -30 44 C-30.598125 44.45375 -31.19625 44.9075 -31.8125 45.375 C-34.88092075 47.65439827 -37.20716314 47.86921252 -41 48 C-43.01586684 47.03238392 -45.01753602 46.03432904 -47 45 C-48.1446875 45.2475 -48.1446875 45.2475 -49.3125 45.5 C-53.54363508 46.28718792 -57.06280651 44.51826416 -61 43 C-61.5878125 43.9590625 -61.5878125 43.9590625 -62.1875 44.9375 C-64 47 -64 47 -66.3125 47.875 C-69.58826103 48.02736098 -71.93295736 47.09144414 -75 46 C-75.05411124 43.58303128 -75.09372278 41.16728213 -75.125 38.75 C-75.14175781 38.06808594 -75.15851563 37.38617188 -75.17578125 36.68359375 C-75.21240108 32.91175169 -75.02472691 30.22043178 -73 27 C-73 26.67 -73 26.34 -73 26 C-73 23.66666667 -73 21.33333333 -73 19 C-71.54207116 18.94600264 -70.08357288 18.90720823 -68.625 18.875 C-67.40683594 18.84019531 -67.40683594 18.84019531 -66.1640625 18.8046875 C-64 19 -64 19 -62 21 C-61.05125 21 -60.1025 21 -59.125 21 C-56.00706115 21 -54.60375251 21.39769076 -52 23 C-51.3503125 22.1028125 -51.3503125 22.1028125 -50.6875 21.1875 C-50.130625 20.465625 -49.57375 19.74375 -49 19 C-48.566875 18.4225 -48.13375 17.845 -47.6875 17.25 C-44.99695535 15.25700396 -43.29817276 15.57245909 -40 16 C-35.20340645 17.69879355 -30.96828575 19.79484612 -27 23 C-26.01 23.33 -25.02 23.66 -24 24 C-22.49704954 22.75843223 -20.99713639 21.51221613 -19.53515625 20.22265625 C-17.33521636 18.47054127 -15.80682727 18.0684592 -13 18 C-9.375 18.5 -9.375 18.5 -6 20 C-4.48697556 22.30404423 -3.8400173 24.33170975 -3 27 C-3.9590625 27.556875 -3.9590625 27.556875 -4.9375 28.125 C-12.3759137 32.52975878 -12.3759137 32.52975878 -19 38 C-17.35 38.33 -15.7 38.66 -14 39 C-14 38.34 -14 37.68 -14 37 C-13.278125 36.7525 -12.55625 36.505 -11.8125 36.25 C-8.75680536 34.89191349 -6.58526754 33.09616287 -4 31 C-3.34 31 -2.68 31 -2 31 C-2 27.37 -2 23.74 -2 20 C-1.34 20 -0.68 20 0 20 C0 13.4 0 6.8 0 0 Z M1 3 C1 4.98 1 6.96 1 9 C1.33 9 1.66 9 2 9 C2 7.02 2 5.04 2 3 C1.67 3 1.34 3 1 3 Z M8 3 C9 5 9 5 9 5 Z M8 8 C8 11.63 8 15.26 8 19 C8.33 19 8.66 19 9 19 C9 15.37 9 11.74 9 8 C8.67 8 8.34 8 8 8 Z M7 19 C8 23 8 23 8 23 Z M-64 22 C-63 24 -63 24 -63 24 Z M-62 23 C-61 25 -61 25 -61 25 Z M-6 23 C-5 25 -5 25 -5 25 Z M-65 24 C-65 25.65 -65 27.3 -65 29 C-64.34 28.34 -63.68 27.68 -63 27 C-63.66 26.01 -64.32 25.02 -65 24 Z M-51 25 C-50 27 -50 27 -50 27 Z M-29 28 C-29.33 28.66 -29.66 29.32 -30 30 C-29.34 30.66 -28.68 31.32 -28 32 C-27.67 31.01 -27.34 30.02 -27 29 C-27.66 28.67 -28.32 28.34 -29 28 Z M-55 29 C-55 30.65 -55 32.3 -55 34 C-54.34 33.67 -53.68 33.34 -53 33 C-53.66 31.68 -54.32 30.36 -55 29 Z M-74 31 C-73 34 -73 34 -73 34 Z M-36.578125 32.8984375 C-37.90070313 33.62933594 -37.90070313 33.62933594 -39.25 34.375 C-40.58804688 35.09816406 -40.58804688 35.09816406 -41.953125 35.8359375 C-42.62859375 36.22007813 -43.3040625 36.60421875 -44 37 C-41.06872538 38.95418308 -39.44165321 39.64700993 -36 40 C-35.34 39.34 -34.68 38.68 -34 38 C-32.66666667 36.66666667 -31.33333333 35.33333333 -30 34 C-32.63426992 32.19047814 -33.48640998 31.82102166 -36.578125 32.8984375 Z M-67 33 C-66 35 -66 35 -66 35 Z M-50 38 C-49 40 -49 40 -49 40 Z M-1 38 C0 40 0 40 0 40 Z M-63 39 C-62 41 -62 41 -62 41 Z M-61 39 C-60 41 -60 41 -60 41 Z M-43 40 C-43 40.33 -43 40.66 -43 41 C-41.35 41 -39.7 41 -38 41 C-38 40.67 -38 40.34 -38 40 C-39.65 40 -41.3 40 -43 40 Z M-21 40 C-21 40.33 -21 40.66 -21 41 C-19.35 41 -17.7 41 -16 41 C-16 40.67 -16 40.34 -16 40 C-17.65 40 -19.3 40 -21 40 Z M6 40 C6 41.65 6 43.3 6 45 C6.33 45 6.66 45 7 45 C7 43.35 7 41.7 7 40 C6.67 40 6.34 40 6 40 Z M-2 41 C-1 45 -1 45 -1 45 Z M8 41 C8.33 41.99 8.66 42.98 9 44 C9 43.01 9 42.02 9 41 C8.67 41 8.34 41 8 41 Z " fill="#000000" transform="translate(307,28)"/>
<path d="M0 0 C0.99 0.99 0.99 0.99 2 2 C2.804375 2.763125 3.60875 3.52625 4.4375 4.3125 C8.27007797 8.33203299 10.0719084 11.56403491 11 17 C11.37125 17.94875 11.7425 18.8975 12.125 19.875 C13.17053021 23.60903648 12.63185848 26.20884912 12 30 C12.16757813 30.64195313 12.33515625 31.28390625 12.5078125 31.9453125 C14.03851623 38.33539314 10.20617348 45.63288908 7 51 C4.38148477 54.80107049 1.95099952 56.69525028 -2 59 C-2 59.66 -2 60.32 -2 61 C-2.56589844 61.11472656 -3.13179688 61.22945313 -3.71484375 61.34765625 C-6.25169145 62.07185038 -8.25758268 63.15783421 -10.5625 64.4375 C-20.34477743 69.35724187 -29.43424392 69.80795743 -40 67 C-44.66446818 65.12306261 -48.82359725 62.7842685 -53 60 C-54.32567199 59.31822584 -55.65753688 58.64808564 -57 58 C-57 57.34 -57 56.68 -57 56 C-57.99 55.67 -58.98 55.34 -60 55 C-65.61236137 48.99672788 -66.96994941 43.03853199 -67 35 C-67.66 35 -68.32 35 -69 35 C-68.814375 34.195625 -68.62875 33.39125 -68.4375 32.5625 C-68.293125 31.716875 -68.14875 30.87125 -68 30 C-68.33 29.67 -68.66 29.34 -69 29 C-69.125 26.5 -69.125 26.5 -69 24 C-68.505 23.505 -68.505 23.505 -68 23 C-68.33 22.34 -68.66 21.68 -69 21 C-67.35082556 14.80800762 -64.97643918 9.03682296 -61 4 C-60.34 3.67 -59.68 3.34 -59 3 C-58.39542969 2.38253906 -57.79085937 1.76507813 -57.16796875 1.12890625 C-40.51685162 -15.22219075 -17.70018377 -12.83263323 0 0 Z M-43 -3 C-42 -1 -42 -1 -42 -1 Z M-30 -3 C-30 -2.01 -30 -1.02 -30 0 C-31.32 -0.66 -32.64 -1.32 -34 -2 C-34.66 -1.34 -35.32 -0.68 -36 0 C-36.99 0 -37.98 0 -39 0 C-39.33 -0.66 -39.66 -1.32 -40 -2 C-40 -1.01 -40 -0.02 -40 1 C-41.32 1.33 -42.64 1.66 -44 2 C-42.68 2 -41.36 2 -40 2 C-40 2.66 -40 3.32 -40 4 C-40.99 3.67 -41.98 3.34 -43 3 C-45.81140089 3.42171013 -48.29880487 4.09960162 -51 5 C-50.67 5.99 -50.34 6.98 -50 8 C-50.99 7.67 -51.98 7.34 -53 7 C-53.33 7.66 -53.66 8.32 -54 9 C-53.67 9.66 -53.34 10.32 -53 11 C-53.99 11.495 -53.99 11.495 -55 12 C-54.67 12.99 -54.34 13.98 -54 15 C-54.99 15.33 -55.98 15.66 -57 16 C-56.34 16.33 -55.68 16.66 -55 17 C-55.25 19.375 -55.25 19.375 -56 22 C-57.9375 23.1875 -57.9375 23.1875 -60 24 C-60.66 24.66 -61.32 25.32 -62 26 C-60.68 26 -59.36 26 -58 26 C-58 26.66 -58 27.32 -58 28 C-58.66 28.33 -59.32 28.66 -60 29 C-59.34 29 -58.68 29 -58 29 C-58.57344937 31.86724686 -58.8614515 32.8614515 -61 35 C-59.68 35.33 -58.36 35.66 -57 36 C-57.33 36.66 -57.66 37.32 -58 38 C-57.34 38 -56.68 38 -56 38 C-56 38.66 -56 39.32 -56 40 C-57.98 40.495 -57.98 40.495 -60 41 C-58.68 41.33 -57.36 41.66 -56 42 C-56 42.66 -56 43.32 -56 44 C-56.99 43.67 -57.98 43.34 -59 43 C-59 43.66 -59 44.32 -59 45 C-56.69 45 -54.38 45 -52 45 C-52.495 47.475 -52.495 47.475 -53 50 C-52.01 50.33 -51.02 50.66 -50 51 C-50 51.99 -50 52.98 -50 54 C-49.01 54 -48.02 54 -47 54 C-46.87625 55.175625 -46.87625 55.175625 -46.75 56.375 C-46.27193661 59.14749104 -46.27193661 59.14749104 -43.9375 60.3125 C-43.298125 60.539375 -42.65875 60.76625 -42 61 C-42 60.34 -42 59.68 -42 59 C-41.34 59 -40.68 59 -40 59 C-40 59.66 -40 60.32 -40 61 C-37.525 60.505 -37.525 60.505 -35 60 C-35 60.66 -35 61.32 -35 62 C-32.83333333 61.16666667 -32.83333333 61.16666667 -32 59 C-31.34 59.66 -30.68 60.32 -30 61 C-29.67 60.67 -29.34 60.34 -29 60 C-27.9275 60.020625 -26.855 60.04125 -25.75 60.0625 C-22.05147456 60.00085791 -20.31071561 59.4534849 -17 58 C-14.34685116 57.26467036 -11.67957614 56.63583163 -9 56 C-9.99 55.34 -10.98 54.68 -12 54 C-10.68 54 -9.36 54 -8 54 C-8 53.34 -8 52.68 -8 52 C-7.01 51.67 -6.02 51.34 -5 51 C-4.34 50.67 -3.68 50.34 -3 50 C-3 48.68 -3 47.36 -3 46 C-1.35 46 0.3 46 2 46 C2 45.67 2 45.34 2 45 C0.35 45 -1.3 45 -3 45 C-3 44.34 -3 43.68 -3 43 C-0.03 43.495 -0.03 43.495 3 44 C3 43.34 3 42.68 3 42 C2.0409375 41.814375 2.0409375 41.814375 1.0625 41.625 C0.381875 41.41875 -0.29875 41.2125 -1 41 C-1.33 40.34 -1.66 39.68 -2 39 C-1.01 38.67 -0.02 38.34 1 38 C0.34 36.35 -0.32 34.7 -1 33 C-0.34 33 0.32 33 1 33 C1.33 33.66 1.66 34.32 2 35 C2.99 34.01 2.99 34.01 4 33 C3.34 33 2.68 33 2 33 C2 32.34 2 31.68 2 31 C2.66 31 3.32 31 4 31 C2.79266543 28.58533087 1.39745961 26.30884631 0 24 C0.99 23.67 1.98 23.34 3 23 C2.01 22.67 1.02 22.34 0 22 C0 20.68 0 19.36 0 18 C0.66 17.67 1.32 17.34 2 17 C0.68 16.67 -0.64 16.34 -2 16 C-2.495 14.02 -2.495 14.02 -3 12 C-4.32 12 -5.64 12 -7 12 C-6.625 10.0625 -6.625 10.0625 -6 8 C-5.34 7.67 -4.68 7.34 -4 7 C-5.32 7 -6.64 7 -8 7 C-8.66 6.01 -9.32 5.02 -10 4 C-11.65 4.33 -13.3 4.66 -15 5 C-15 4.34 -15 3.68 -15 3 C-14.34 2.67 -13.68 2.34 -13 2 C-14.32 2 -15.64 2 -17 2 C-18.67225729 1.69595322 -20.34080104 1.36871088 -22 1 C-22.495 -0.485 -22.495 -0.485 -23 -2 C-25.31 -2.33 -27.62 -2.66 -30 -3 Z M-18 -1 C-18.33 -0.34 -18.66 0.32 -19 1 C-18.01 0.67 -17.02 0.34 -16 0 C-16.66 -0.33 -17.32 -0.66 -18 -1 Z M-64 10 C-63 12 -63 12 -63 12 Z M-3 10 C-2.67 10.99 -2.34 11.98 -2 13 C-1.34 12.67 -0.68 12.34 0 12 C-0.33 11.34 -0.66 10.68 -1 10 C-1.66 10 -2.32 10 -3 10 Z M-60 18 C-60 18.66 -60 19.32 -60 20 C-59.34 19.67 -58.68 19.34 -58 19 C-58.66 18.67 -59.32 18.34 -60 18 Z M11 23 C12 25 12 25 12 25 Z M4 24 C3.67 24.66 3.34 25.32 3 26 C3.99 25.67 4.98 25.34 6 25 C5.34 24.67 4.68 24.34 4 24 Z M1 36 C2.98 36.99 2.98 36.99 5 38 C4.67 37.34 4.34 36.68 4 36 C3.01 36 2.02 36 1 36 Z M9 40 C10 42 10 42 10 42 Z M-65 44 C-64 46 -64 46 -64 46 Z M-7 54 C-6 56 -6 56 -6 56 Z " fill="#000000" transform="translate(78,21)"/>
<path d="M0 0 C0.763125 0.556875 1.52625 1.11375 2.3125 1.6875 C2.910625 2.120625 3.50875 2.55375 4.125 3 C5.89293356 5.51232663 5.51135058 7.7047413 5.3125 10.6875 C4.6525 10.6875 3.9925 10.6875 3.3125 10.6875 C3.3125 12.6675 3.3125 14.6475 3.3125 16.6875 C0.39767222 17.49717438 -1.14863217 17.90595993 -4 16.75 C-4.556875 16.399375 -5.11375 16.04875 -5.6875 15.6875 C-5.6875 13.3775 -5.6875 11.0675 -5.6875 8.6875 C-8.73832939 9.70444313 -9.59122675 10.40894212 -11.6875 12.6875 C-12.3475 13.3475 -13.0075 14.0075 -13.6875 14.6875 C-14.0175 15.6775 -14.3475 16.6675 -14.6875 17.6875 C-15.3475 18.0175 -16.0075 18.3475 -16.6875 18.6875 C-17.0175 19.3475 -17.3475 20.0075 -17.6875 20.6875 C-18.6875 22.6875 -18.6875 22.6875 -20.6875 23.6875 C-21.49475146 25.76133069 -21.49475146 25.76133069 -22.125 28.25 C-23.01570929 31.45112781 -23.98044258 34.45901038 -25.3125 37.5 C-27.66316692 43.53750239 -28.74602143 51.5119357 -26.6875 57.6875 C-25.0375 58.0175 -23.3875 58.3475 -21.6875 58.6875 C-21.0275 57.0375 -20.3675 55.3875 -19.6875 53.6875 C-19.0275 53.6875 -18.3675 53.6875 -17.6875 53.6875 C-17.3575 52.6975 -17.0275 51.7075 -16.6875 50.6875 C-16.0275 50.39875 -15.3675 50.11 -14.6875 49.8125 C-12.39599401 48.8321618 -12.39599401 48.8321618 -11.9375 46.0625 C-11.81375 44.886875 -11.81375 44.886875 -11.6875 43.6875 C-10.2025 43.1925 -10.2025 43.1925 -8.6875 42.6875 C-8.6875 41.6975 -8.6875 40.7075 -8.6875 39.6875 C-8.0275 39.6875 -7.3675 39.6875 -6.6875 39.6875 C-6.6875 38.0375 -6.6875 36.3875 -6.6875 34.6875 C-9.6575 33.6975 -12.6275 32.7075 -15.6875 31.6875 C-15.3575 29.7075 -15.0275 27.7275 -14.6875 25.6875 C-10.89770801 24.86609178 -7.10537503 24.05704199 -3.3125 23.25 C-1.72115234 22.90485352 -1.72115234 22.90485352 -0.09765625 22.55273438 C18.4645203 18.62393014 18.4645203 18.62393014 25.3125 21.6875 C25.3125 23.0075 25.3125 24.3275 25.3125 25.6875 C20.0325 27.0075 14.7525 28.3275 9.3125 29.6875 C9.8075 31.6675 9.8075 31.6675 10.3125 33.6875 C9.6525 33.6875 8.9925 33.6875 8.3125 33.6875 C7.73644837 38.61479873 7.24482641 43.4719506 7.3125 48.4375 C7.3653274 52.70142601 7.25050587 56.81148827 5.3125 60.6875 C5.08220044 63.05873246 4.90130058 65.43491943 4.75 67.8125 C4.66621094 69.09382813 4.58242187 70.37515625 4.49609375 71.6953125 C4.43550781 72.68273437 4.37492187 73.67015625 4.3125 74.6875 C-2.92125143 74.09456956 -2.92125143 74.09456956 -5.6875 72.625 C-7.37606305 69.35340909 -6.92226751 66.32639637 -6.6875 62.6875 C-6.3575 62.3575 -6.0275 62.0275 -5.6875 61.6875 C-6.09679986 59.63353274 -6.09679986 59.63353274 -6.6875 57.6875 C-10.74774321 59.72552135 -10.74774321 59.72552135 -12.6875 63.6875 C-16.18416554 66.1557345 -18.35735529 67.60259715 -22.625 67.875 C-26.48171808 66.37953789 -28.89727669 64.1285828 -31.85546875 61.28125 C-33.70119964 59.46955929 -33.70119964 59.46955929 -36.6875 58.6875 C-39.15490273 45.42015418 -38.36793069 33.24320993 -31.34765625 21.43359375 C-30.1904337 19.80504043 -28.94358395 18.24107751 -27.6875 16.6875 C-27.15125 15.78 -26.615 14.8725 -26.0625 13.9375 C-24.76429838 11.81317008 -23.51105036 10.35908783 -21.6875 8.6875 C-19.34069447 6.52981676 -19.34069447 6.52981676 -18 3.6875 C-14.39962694 -1.79878275 -5.50003608 -2.68606413 0 0 Z M-4.6875 7.6875 C-4.6875 9.9975 -4.6875 12.3075 -4.6875 14.6875 C-4.3575 14.6875 -4.0275 14.6875 -3.6875 14.6875 C-3.6875 12.3775 -3.6875 10.0675 -3.6875 7.6875 C-4.0175 7.6875 -4.3475 7.6875 -4.6875 7.6875 Z M-34.6875 31.6875 C-33.6875 33.6875 -33.6875 33.6875 -33.6875 33.6875 Z M-27.6875 36.6875 C-26.6875 38.6875 -26.6875 38.6875 -26.6875 38.6875 Z M-36.6875 38.6875 C-36.6875 40.6675 -36.6875 42.6475 -36.6875 44.6875 C-36.3575 44.6875 -36.0275 44.6875 -35.6875 44.6875 C-35.6875 42.7075 -35.6875 40.7275 -35.6875 38.6875 C-36.0175 38.6875 -36.3475 38.6875 -36.6875 38.6875 Z M-29.6875 42.6875 C-29.6875 44.6675 -29.6875 46.6475 -29.6875 48.6875 C-29.3575 48.6875 -29.0275 48.6875 -28.6875 48.6875 C-28.6875 46.7075 -28.6875 44.7275 -28.6875 42.6875 C-29.0175 42.6875 -29.3475 42.6875 -29.6875 42.6875 Z M-11.6875 45.6875 C-10.6875 47.6875 -10.6875 47.6875 -10.6875 47.6875 Z M5.3125 46.6875 C5.3125 48.3375 5.3125 49.9875 5.3125 51.6875 C5.6425 51.6875 5.9725 51.6875 6.3125 51.6875 C6.3125 50.0375 6.3125 48.3875 6.3125 46.6875 C5.9825 46.6875 5.6525 46.6875 5.3125 46.6875 Z M-3.6875 50.6875 C-5.1725 52.6675 -5.1725 52.6675 -6.6875 54.6875 C-5.3675 54.3575 -4.0475 54.0275 -2.6875 53.6875 C-3.0175 52.6975 -3.3475 51.7075 -3.6875 50.6875 Z M-30.6875 51.6875 C-29.6875 53.6875 -29.6875 53.6875 -29.6875 53.6875 Z M-36.6875 52.6875 C-35.6875 55.6875 -35.6875 55.6875 -35.6875 55.6875 Z M-4.6875 56.6875 C-4.6875 58.3375 -4.6875 59.9875 -4.6875 61.6875 C-4.3575 61.6875 -4.0275 61.6875 -3.6875 61.6875 C-3.6875 60.0375 -3.6875 58.3875 -3.6875 56.6875 C-4.0175 56.6875 -4.3475 56.6875 -4.6875 56.6875 Z M3.3125 61.6875 C4.3125 63.6875 4.3125 63.6875 4.3125 63.6875 Z M3.3125 64.6875 C4.3125 66.6875 4.3125 66.6875 4.3125 66.6875 Z " fill="#000000" transform="translate(147.6875,13.3125)"/>
<path d="M0 0 C3.34373475 0.55728913 6.03312999 1.35173889 9 3 C9 5.64 9 8.28 9 11 C8.01 11 7.02 11 6 11 C6.01160156 11.64839844 6.02320313 12.29679687 6.03515625 12.96484375 C6.14575327 24.98832017 5.52780703 36.99098631 5 49 C3.5199159 48.88637738 2.04089926 48.75877092 0.5625 48.625 C-0.26121094 48.55539063 -1.08492187 48.48578125 -1.93359375 48.4140625 C-2.61550781 48.27742188 -3.29742187 48.14078125 -4 48 C-4.33 47.34 -4.66 46.68 -5 46 C-6.3303125 45.814375 -6.3303125 45.814375 -7.6875 45.625 C-11.60356943 44.88611898 -13.80989047 43.33941365 -17 41 C-17.99 40.34 -18.98 39.68 -20 39 C-22.98927421 40.67047677 -25.46488158 42.40786276 -27.9375 44.75 C-31 47 -31 47 -34.125 47 C-36.98899347 46.00382836 -38.69136004 44.92386663 -41 43 C-42.32342327 42.31387096 -43.65569733 41.64426124 -45 41 C-45.43570313 41.44472656 -45.87140625 41.88945313 -46.3203125 42.34765625 C-51.19955324 46.98399106 -51.19955324 46.98399106 -55.125 47.0625 C-58.20984795 45.9224475 -60.43459784 45.08120374 -63 43 C-63.53113236 40.1912471 -63.71831166 38.11184976 -63.625 35.3125 C-63.60663086 34.59513672 -63.58826172 33.87777344 -63.56933594 33.13867188 C-63.32884779 28.36790707 -62.89134884 24.12575839 -59.88671875 20.234375 C-55.67548923 17.47920207 -50.75022518 18.10252156 -46 19 C-43.49826796 20.09132858 -42.06373889 21.16556543 -40 23 C-39.566875 22.34 -39.13375 21.68 -38.6875 21 C-35.0038904 18.25870913 -32.19257635 18.44983756 -27.6953125 18.59375 C-23.86214654 19.17150255 -21.99546503 20.60362797 -19 23 C-18.01 23 -17.02 23 -16 23 C-15.5875 22.5875 -15.175 22.175 -14.75 21.75 C-12.17700999 19.17700999 -9.18795142 17.74435078 -6 16 C-6 15.34 -6 14.68 -6 14 C-5.01 14 -4.02 14 -3 14 C-3 12.35 -3 10.7 -3 9 C-2.34 9 -1.68 9 -1 9 C-0.67 6.03 -0.34 3.06 0 0 Z M-59 22 C-58 24 -58 24 -58 24 Z M-6 24 C-6.33 24.66 -6.66 25.32 -7 26 C-6.34 26.66 -5.68 27.32 -5 28 C-4.67 27.01 -4.34 26.02 -4 25 C-4.66 24.67 -5.32 24.34 -6 24 Z M-48 25 C-44 26 -44 26 -44 26 Z M-27 25 C-23 26 -23 26 -23 26 Z M-49 26 C-49.763125 26.763125 -50.52625 27.52625 -51.3125 28.3125 C-54 31 -54 31 -55.8125 32.5 C-57.51035354 34.6446571 -57.21486964 36.34994106 -57 39 C-56.01 39.33 -55.02 39.66 -54 40 C-49.87601994 37.13846282 -47.3147293 34.99597135 -46 30 C-46 29.01 -46 28.02 -46 27 C-46.99 26.67 -47.98 26.34 -49 26 Z M-32 29 C-34.13637125 31.95022696 -34.19859326 34.42532128 -34 38 C-29.60708214 34.68090651 -27.1772135 32.20112114 -25 27 C-27.7523245 27 -29.54454828 27.77227414 -32 29 Z M-18 27 C-18.33 28.98 -18.66 30.96 -19 33 C-18.01 33.495 -18.01 33.495 -17 34 C-16.67 32.02 -16.34 30.04 -16 28 C-16.66 27.67 -17.32 27.34 -18 27 Z M-7 28 C-6 30 -6 30 -6 30 Z M-5 28 C-4 30 -4 30 -4 30 Z M-35 31 C-34 33 -34 33 -34 33 Z M-8 31 C-7 33 -7 33 -7 33 Z M-6 31 C-5 33 -5 33 -5 33 Z M-36 34 C-35 38 -35 38 -35 38 Z M-11 35 C-10 38 -10 38 -10 38 Z M-18 37 C-17 39 -17 39 -17 39 Z M-3 42 C-3.33 42.66 -3.66 43.32 -4 44 C-3.01 45.485 -3.01 45.485 -2 47 C-2 45.35 -2 43.7 -2 42 C-2.33 42 -2.66 42 -3 42 Z " fill="#000000" transform="translate(223,29)"/>
<path d="M0 0 C3.37884168 3.13749585 3.57200952 6.54889904 4 11 C2.35 11.33 0.7 11.66 -1 12 C-1.66 9.69 -2.32 7.38 -3 5 C-6.45428531 8.18157857 -8.42127737 10.60212982 -10 15 C-10.474375 15.5775 -10.94875 16.155 -11.4375 16.75 C-15.79386962 23.02317226 -16.5494159 30.55759361 -17 38 C-14.50447516 37.21869929 -14.50447516 37.21869929 -12 36 C-11.67 35.01 -11.34 34.02 -11 33 C-10.01 32.505 -10.01 32.505 -9 32 C-8.67 31.01 -8.34 30.02 -8 29 C-7.34 28.67 -6.68 28.34 -6 28 C-7.01160848 23.60685207 -7.01160848 23.60685207 -10.125 20.625 C-11.053125 20.315625 -11.053125 20.315625 -12 20 C-11.67 19.34 -11.34 18.68 -11 18 C-8.47479647 17.21180337 -6.00669257 16.54350686 -3.4375 15.9375 C-2.74591797 15.76412109 -2.05433594 15.59074219 -1.34179688 15.41210938 C3.42190791 14.25337037 8.10506444 13.35302549 13 13 C15.5 14.875 15.5 14.875 17 17 C17 17.33 17 17.66 17 18 C14.03 18.66 11.06 19.32 8 20 C7.34 25.61 6.68 31.22 6 37 C5.34 37 4.68 37 4 37 C3.34 41.29 2.68 45.58 2 50 C0.02 49.67 -1.96 49.34 -4 49 C-3.67 46.03 -3.34 43.06 -3 40 C-4.98 40.495 -4.98 40.495 -7 41 C-7.33 41.99 -7.66 42.98 -8 44 C-9.41543415 44.19658808 -10.83244031 44.38187546 -12.25 44.5625 C-13.43335938 44.71912109 -13.43335938 44.71912109 -14.640625 44.87890625 C-17.16670222 45.00855591 -18.67274451 45.00071986 -21 44 C-24.13878645 41.09249255 -24.9429304 39.4720333 -25.4609375 35.1875 C-25.45303502 33.79139512 -25.42391169 32.3952702 -25.375 31 C-25.37371094 30.30132812 -25.37242188 29.60265625 -25.37109375 28.8828125 C-25.30243171 24.83938108 -24.77661915 21.63851602 -23 18 C-22.34 18 -21.68 18 -21 18 C-20.8453125 16.9171875 -20.8453125 16.9171875 -20.6875 15.8125 C-19.93217477 12.72253314 -18.80862024 10.60441314 -17 8 C-16.34 7.67 -15.68 7.34 -15 7 C-14.71125 6.360625 -14.4225 5.72125 -14.125 5.0625 C-12.73580896 2.51564976 -11.64406003 2.0887306 -9 1 C-8.360625 0.608125 -7.72125 0.21625 -7.0625 -0.1875 C-4.26903084 -1.28795755 -2.8075004 -1.00782066 0 0 Z M2 8 C3 10 3 10 3 10 Z M-23 21 C-22 23 -22 23 -22 23 Z M6 22 C7 24 7 24 7 24 Z M-24 24 C-23 28 -23 28 -23 28 Z M5 24 C5 25.65 5 27.3 5 29 C5.33 29 5.66 29 6 29 C6 27.35 6 25.7 6 24 C5.67 24 5.34 24 5 24 Z M-18 25 C-17 27 -17 27 -17 27 Z M-19 28 C-19 30.31 -19 32.62 -19 35 C-18.67 35 -18.34 35 -18 35 C-18 32.69 -18 30.38 -18 28 C-18.33 28 -18.66 28 -19 28 Z " fill="#000000" transform="translate(54,25)"/>
<path d="M0 0 C0.33 0 0.66 0 1 0 C1.19629336 2.85380345 1.38226546 5.70767394 1.5625 8.5625 C1.61857422 9.36236328 1.67464844 10.16222656 1.73242188 10.98632812 C2.02968013 15.84154627 1.86778632 20.21110511 1 25 C0.67 25 0.34 25 0 25 C0 16.75 0 8.5 0 0 Z " fill="#000000" transform="translate(229,53)"/>
<path d="M0 0 C0.33 0 0.66 0 1 0 C1.07654536 4.51617599 1.10228696 8.59085217 0 13 C-0.33 13 -0.66 13 -1 13 C-0.67 8.71 -0.34 4.42 0 0 Z " fill="#000000" transform="translate(58,62)"/>
<path d="M0 0 C0.33 0 0.66 0 1 0 C1 3.96 1 7.92 1 12 C0.67 12 0.34 12 0 12 C0 8.04 0 4.08 0 0 Z " fill="#000000" transform="translate(230,41)"/>
<path d="M0 0 C1.32 0.66 2.64 1.32 4 2 C-0.455 2.495 -0.455 2.495 -5 3 C-2 1 -2 1 0 0 Z " fill="#000000" transform="translate(55,37)"/>
<path d="M0 0 C0.33 0 0.66 0 1 0 C1 3.3 1 6.6 1 10 C0.67 10 0.34 10 0 10 C0 6.7 0 3.4 0 0 Z " fill="#000000" transform="translate(306,38)"/>
<path d="M0 0 C0.33 0 0.66 0 1 0 C1 2.97 1 5.94 1 9 C0.67 9 0.34 9 0 9 C0 6.03 0 3.06 0 0 Z " fill="#000000" transform="translate(28,53)"/>
<path d="M0 0 C0.33 0 0.66 0 1 0 C1 2.97 1 5.94 1 9 C0.67 9 0.34 9 0 9 C0 6.03 0 3.06 0 0 Z " fill="#000000" transform="translate(221,29)"/>
<path d="M0 0 C2.64 0 5.28 0 8 0 C8 0.33 8 0.66 8 1 C5.36 1 2.72 1 0 1 C0 0.67 0 0.34 0 0 Z " fill="#000000" transform="translate(43,90)"/>
<path d="M0 0 C1.32 1.32 2.64 2.64 4 4 C2.68 3.34 1.36 2.68 0 2 C0 1.34 0 0.68 0 0 Z " fill="#000000" transform="translate(114,74)"/>
<path d="M0 0 C0.33 0 0.66 0 1 0 C1 2.31 1 4.62 1 7 C0.67 7 0.34 7 0 7 C0 4.69 0 2.38 0 0 Z " fill="#000000" transform="translate(109,59)"/>
<path d="M0 0 C1.98 0.99 1.98 0.99 4 2 C3.67 2.66 3.34 3.32 3 4 C2.01 2.68 1.02 1.36 0 0 Z " fill="#000000" transform="translate(276,47)"/>
<path d="M0 0 C2.31 0 4.62 0 7 0 C7 0.33 7 0.66 7 1 C4.69 1 2.38 1 0 1 C0 0.67 0 0.34 0 0 Z " fill="#000000" transform="translate(59,37)"/>
<path d="M0 0 C2.31 0 4.62 0 7 0 C7 0.33 7 0.66 7 1 C4.69 1 2.38 1 0 1 C0 0.67 0 0.34 0 0 Z " fill="#000000" transform="translate(50,9)"/>
<path d="M0 0 C1.98 0 3.96 0 6 0 C6 0.33 6 0.66 6 1 C4.02 1 2.04 1 0 1 C0 0.67 0 0.34 0 0 Z " fill="#000000" transform="translate(37,71)"/>
<path d="M0 0 C0.33 0 0.66 0 1 0 C1 1.98 1 3.96 1 6 C0.67 6 0.34 6 0 6 C0 4.02 0 2.04 0 0 Z " fill="#000000" transform="translate(49,66)"/>
<path d="M0 0 C0.66 1.32 1.32 2.64 2 4 C1.01 4.495 1.01 4.495 0 5 C0 3.35 0 1.7 0 0 Z " fill="#000000" transform="translate(167,63)"/>
<path d="M0 0 C0.33 0 0.66 0 1 0 C1 1.98 1 3.96 1 6 C0.67 6 0.34 6 0 6 C0 4.02 0 2.04 0 0 Z " fill="#000000" transform="translate(158,62)"/>
<path d="M0 0 C1.98 0 3.96 0 6 0 C6 0.33 6 0.66 6 1 C4.02 1 2.04 1 0 1 C0 0.67 0 0.34 0 0 Z " fill="#000000" transform="translate(172,46)"/>
<path d="M0 0 C0.66 0 1.32 0 2 0 C2 1.65 2 3.3 2 5 C0 1.125 0 1.125 0 0 Z " fill="#000000" transform="translate(49,31)"/>
<path d="M0 0 C1.98 0 3.96 0 6 0 C6 0.33 6 0.66 6 1 C4.02 1 2.04 1 0 1 C0 0.67 0 0.34 0 0 Z " fill="#000000" transform="translate(139,10)"/>
<path d="M0 0 C1.65 0 3.3 0 5 0 C5 0.33 5 0.66 5 1 C3.35 1 1.7 1 0 1 C0 0.67 0 0.34 0 0 Z " fill="#000000" transform="translate(52,90)"/>
<path d="M0 0 C0.33 0 0.66 0 1 0 C1 1.65 1 3.3 1 5 C0.67 5 0.34 5 0 5 C0 3.35 0 1.7 0 0 Z " fill="#000000" transform="translate(231,63)"/>
<path d="M0 0 C0.33 0 0.66 0 1 0 C1 1.65 1 3.3 1 5 C0.67 5 0.34 5 0 5 C0 3.35 0 1.7 0 0 Z " fill="#000000" transform="translate(155,52)"/>
<path d="M0 0 C0.33 0 0.66 0 1 0 C1 1.65 1 3.3 1 5 C0.67 5 0.34 5 0 5 C0 3.35 0 1.7 0 0 Z " fill="#000000" transform="translate(156,47)"/>
<path d="M0 0 C1.65 0 3.3 0 5 0 C5 0.33 5 0.66 5 1 C3.35 1 1.7 1 0 1 C0 0.67 0 0.34 0 0 Z " fill="#000000" transform="translate(193,46)"/>
<path d="M0 0 C1.65 0 3.3 0 5 0 C5 0.33 5 0.66 5 1 C3.35 1 1.7 1 0 1 C0 0.67 0 0.34 0 0 Z " fill="#000000" transform="translate(157,43)"/>
<path d="M0 0 C1.65 0 3.3 0 5 0 C5 0.33 5 0.66 5 1 C3.35 1 1.7 1 0 1 C0 0.67 0 0.34 0 0 Z " fill="#000000" transform="translate(164,41)"/>
<path d="M0 0 C1.65 0 3.3 0 5 0 C5 0.33 5 0.66 5 1 C3.35 1 1.7 1 0 1 C0 0.67 0 0.34 0 0 Z " fill="#000000" transform="translate(133,37)"/>
<path d="M0 0 C1.65 0 3.3 0 5 0 C5 0.33 5 0.66 5 1 C3.35 1 1.7 1 0 1 C0 0.67 0 0.34 0 0 Z " fill="#000000" transform="translate(138,36)"/>
<path d="M0 0 C1.65 0 3.3 0 5 0 C5 0.33 5 0.66 5 1 C3.35 1 1.7 1 0 1 C0 0.67 0 0.34 0 0 Z " fill="#000000" transform="translate(143,35)"/>
<path d="M0 0 C1.65 0 3.3 0 5 0 C5 0.33 5 0.66 5 1 C3.35 1 1.7 1 0 1 C0 0.67 0 0.34 0 0 Z " fill="#000000" transform="translate(148,34)"/>
<path d="M0 0 C0.99 0.33 1.98 0.66 3 1 C2.34 1.66 1.68 2.32 1 3 C0.67 2.01 0.34 1.02 0 0 Z " fill="#000000" transform="translate(28,26)"/>
<path d="M0 0 C1.65 0 3.3 0 5 0 C5 0.33 5 0.66 5 1 C3.35 1 1.7 1 0 1 C0 0.67 0 0.34 0 0 Z " fill="#000000" transform="translate(43,9)"/>
<path d="M0 0 C4 1 4 1 4 1 Z " fill="#000000" transform="translate(124,82)"/>
<path d="M0 0 C0.66 0 1.32 0 2 0 C2 0.66 2 1.32 2 2 C1.34 2 0.68 2 0 2 C0 1.34 0 0.68 0 0 Z " fill="#000000" transform="translate(40,78)"/>
<path d="M0 0 C0.99 0 1.98 0 3 0 C2.67 0.66 2.34 1.32 2 2 C1.34 1.34 0.68 0.68 0 0 Z " fill="#000000" transform="translate(36,78)"/>
<path d="M0 0 C0.99 0 1.98 0 3 0 C2.67 0.66 2.34 1.32 2 2 C1.34 1.34 0.68 0.68 0 0 Z " fill="#000000" transform="translate(32,78)"/>
<path d="M0 0 C4 1 4 1 4 1 Z " fill="#000000" transform="translate(288,77)"/>
<path d="M0 0 C4 1 4 1 4 1 Z " fill="#000000" transform="translate(266,77)"/>
<path d="M0 0 C4 1 4 1 4 1 Z " fill="#000000" transform="translate(188,77)"/>
<path d="M0 0 C0.66 0 1.32 0 2 0 C2 0.66 2 1.32 2 2 C1.34 2 0.68 2 0 2 C0 1.34 0 0.68 0 0 Z " fill="#000000" transform="translate(33,75)"/>
<path d="M0 0 C4 1 4 1 4 1 Z " fill="#000000" transform="translate(251,74)"/>
<path d="M0 0 C0.66 0 1.32 0 2 0 C2 0.66 2 1.32 2 2 C1.34 2 0.68 2 0 2 C0 1.34 0 0.68 0 0 Z " fill="#000000" transform="translate(72,68)"/>
<path d="M0 0 C0 3 0 3 0 3 Z " fill="#000000" transform="translate(173,62)"/>
<path d="M0 0 C4 1 4 1 4 1 Z " fill="#000000" transform="translate(330,61)"/>
<path d="M0 0 C0 3 0 3 0 3 Z " fill="#000000" transform="translate(175,59)"/>
<path d="M0 0 C1 4 1 4 1 4 Z " fill="#000000" transform="translate(159,58)"/>
<path d="M0 0 C1 4 1 4 1 4 Z " fill="#000000" transform="translate(10,58)"/>
<path d="M0 0 C4 1 4 1 4 1 Z " fill="#000000" transform="translate(137,48)"/>
<path d="M0 0 C4 1 4 1 4 1 Z " fill="#000000" transform="translate(247,47)"/>
<path d="M0 0 C4 1 4 1 4 1 Z " fill="#000000" transform="translate(62,45)"/>
<path d="M0 0 C4 1 4 1 4 1 Z " fill="#000000" transform="translate(328,44)"/>
<path d="M0 0 C4 1 4 1 4 1 Z " fill="#000000" transform="translate(66,44)"/>
<path d="M0 0 C4 1 4 1 4 1 Z " fill="#000000" transform="translate(45,40)"/>
<path d="M0 0 C4 1 4 1 4 1 Z " fill="#000000" transform="translate(157,32)"/>
<path d="M0 0 C3 1 3 1 3 1 Z " fill="#000000" transform="translate(58,89)"/>
<path d="M0 0 C3 1 3 1 3 1 Z " fill="#000000" transform="translate(66,86)"/>
<path d="M0 0 C3 1 3 1 3 1 Z " fill="#000000" transform="translate(168,77)"/>
<path d="M0 0 C3 1 3 1 3 1 Z " fill="#000000" transform="translate(327,76)"/>
<path d="M0 0 C3 1 3 1 3 1 Z " fill="#000000" transform="translate(292,76)"/>
<path d="M0 0 C3 1 3 1 3 1 Z " fill="#000000" transform="translate(270,76)"/>
<path d="M0 0 C3 1 3 1 3 1 Z " fill="#000000" transform="translate(333,73)"/>
<path d="M0 0 C0.66 0.66 1.32 1.32 2 2 C1.34 2 0.68 2 0 2 C0 1.34 0 0.68 0 0 Z " fill="#000000" transform="translate(207,71)"/>
<path d="M0 0 C0.33 0.66 0.66 1.32 1 2 C0.34 1.67 -0.32 1.34 -1 1 C-0.67 0.67 -0.34 0.34 0 0 Z " fill="#000000" transform="translate(176,72)"/>
<path d="M0 0 C3 1 3 1 3 1 Z " fill="#000000" transform="translate(123,71)"/>
<path d="" fill="#000000" transform="translate(0,0)"/>
<path d="M0 0 C0.66 0.66 1.32 1.32 2 2 C1.34 2 0.68 2 0 2 C0 1.34 0 0.68 0 0 Z " fill="#000000" transform="translate(23,63)"/>
<path d="M0 0 C3 1 3 1 3 1 Z " fill="#000000" transform="translate(331,54)"/>
<path d="" fill="#000000" transform="translate(0,0)"/>
<path d="" fill="#000000" transform="translate(0,0)"/>
<path d="M0 0 C3 1 3 1 3 1 Z " fill="#000000" transform="translate(190,47)"/>
<path d="M0 0 C3 1 3 1 3 1 Z " fill="#000000" transform="translate(169,47)"/>
<path d="M0 0 C3 1 3 1 3 1 Z " fill="#000000" transform="translate(294,45)"/>
<path d="M0 0 C3 1 3 1 3 1 Z " fill="#000000" transform="translate(272,45)"/>
<path d="M0 0 C3 1 3 1 3 1 Z " fill="#000000" transform="translate(291,44)"/>
<path d="M0 0 C3 1 3 1 3 1 Z " fill="#000000" transform="translate(269,44)"/>
<path d="M0 0 C3 1 3 1 3 1 Z " fill="#000000" transform="translate(214,44)"/>
<path d="M0 0 C3 1 3 1 3 1 Z " fill="#000000" transform="translate(262,42)"/>
<path d="" fill="#000000" transform="translate(0,0)"/>
<path d="" fill="#000000" transform="translate(0,0)"/>
<path d="M0 0 C3 1 3 1 3 1 Z " fill="#000000" transform="translate(153,33)"/>
<path d="M0 0 C3 1 3 1 3 1 Z " fill="#000000" transform="translate(167,32)"/>
<path d="M0 0 C3 1 3 1 3 1 Z " fill="#000000" transform="translate(164,31)"/>
<path d="" fill="#000000" transform="translate(0,0)"/>
<path d="M0 0 C0.99 0.495 0.99 0.495 2 1 C1.01 1.495 1.01 1.495 0 2 C0 1.34 0 0.68 0 0 Z " fill="#000000" transform="translate(26,30)"/>
<path d="M0 0 C3 1 3 1 3 1 Z " fill="#000000" transform="translate(223,27)"/>
<path d="M0 0 C3 1 3 1 3 1 Z " fill="#000000" transform="translate(309,26)"/>
<path d="" fill="#000000" transform="translate(0,0)"/>
<path d="M0 0 C3 1 3 1 3 1 Z " fill="#000000" transform="translate(49,22)"/>
<path d="M0 0 C3 1 3 1 3 1 Z " fill="#000000" transform="translate(33,12)"/>
<path d="M0 0 C3 1 3 1 3 1 Z " fill="#000000" transform="translate(136,11)"/>
<path d="M0 0 C3 1 3 1 3 1 Z " fill="#000000" transform="translate(36,11)"/>
<path d="M0 0 C3 1 3 1 3 1 Z " fill="#000000" transform="translate(39,10)"/>
<path d="M0 0 C2 1 2 1 2 1 Z " fill="#000000" transform="translate(147,89)"/>
<path d="M0 0 C2 1 2 1 2 1 Z " fill="#000000" transform="translate(39,89)"/>
<path d="M0 0 C2 1 2 1 2 1 Z " fill="#000000" transform="translate(36,88)"/>
<path d="M0 0 C2 1 2 1 2 1 Z " fill="#000000" transform="translate(64,87)"/>
<path d="M0 0 C2 1 2 1 2 1 Z " fill="#000000" transform="translate(34,87)"/>
<path d="M0 0 C2 1 2 1 2 1 Z " fill="#000000" transform="translate(31,86)"/>
<path d="M0 0 C2 1 2 1 2 1 Z " fill="#000000" transform="translate(70,84)"/>
<path d="M0 0 C2 1 2 1 2 1 Z " fill="#000000" transform="translate(28,84)"/>
<path d="M0 0 C2 1 2 1 2 1 Z " fill="#000000" transform="translate(313,83)"/>
<path d="M0 0 C2 1 2 1 2 1 Z " fill="#000000" transform="translate(315,82)"/>
<path d="M0 0 C2 1 2 1 2 1 Z " fill="#000000" transform="translate(317,81)"/>
<path d="M0 0 C2 1 2 1 2 1 Z " fill="#000000" transform="translate(128,81)"/>
<path d="M0 0 C2 1 2 1 2 1 Z " fill="#000000" transform="translate(122,81)"/>
<path d="M0 0 C2 1 2 1 2 1 Z " fill="#000000" transform="translate(120,80)"/>
<path d="M0 0 C2 1 2 1 2 1 Z " fill="#000000" transform="translate(320,79)"/>
<path d="M0 0 C2 1 2 1 2 1 Z " fill="#000000" transform="translate(226,79)"/>
<path d="M0 0 C2 1 2 1 2 1 Z " fill="#000000" transform="translate(223,79)"/>
<path d="M0 0 C2 1 2 1 2 1 Z " fill="#000000" transform="translate(54,79)"/>
<path d="M0 0 C2 1 2 1 2 1 Z " fill="#000000" transform="translate(50,79)"/>
<path d="" fill="#000000" transform="translate(0,0)"/>
<path d="M0 0 C2 1 2 1 2 1 Z " fill="#000000" transform="translate(322,78)"/>
<path d="M0 0 C2 1 2 1 2 1 Z " fill="#000000" transform="translate(132,78)"/>
<path d="M0 0 C2 1 2 1 2 1 Z " fill="#000000" transform="translate(56,78)"/>
<path d="M0 0 C2 1 2 1 2 1 Z " fill="#000000" transform="translate(324,77)"/>
<path d="M0 0 C2 1 2 1 2 1 Z " fill="#000000" transform="translate(238,77)"/>
<path d="M0 0 C2 1 2 1 2 1 Z " fill="#000000" transform="translate(286,76)"/>
<path d="M0 0 C2 1 2 1 2 1 Z " fill="#000000" transform="translate(264,76)"/>
<path d="M0 0 C2 1 2 1 2 1 Z " fill="#000000" transform="translate(236,76)"/>
<path d="M0 0 C2 1 2 1 2 1 Z " fill="#000000" transform="translate(214,76)"/>
<path d="M0 0 C2 1 2 1 2 1 Z " fill="#000000" transform="translate(192,76)"/>
<path d="M0 0 C2 1 2 1 2 1 Z " fill="#000000" transform="translate(186,76)"/>
<path d="M0 0 C2 1 2 1 2 1 Z " fill="#000000" transform="translate(171,76)"/>
<path d="M0 0 C2 1 2 1 2 1 Z " fill="#000000" transform="translate(165,76)"/>
<path d="M0 0 C2 1 2 1 2 1 Z " fill="#000000" transform="translate(54,76)"/>
<path d="M0 0 C2 1 2 1 2 1 Z " fill="#000000" transform="translate(40,76)"/>
<path d="M0 0 C2 1 2 1 2 1 Z " fill="#000000" transform="translate(330,75)"/>
<path d="M0 0 C2 1 2 1 2 1 Z " fill="#000000" transform="translate(295,75)"/>
<path d="M0 0 C2 1 2 1 2 1 Z " fill="#000000" transform="translate(284,75)"/>
<path d="M0 0 C2 1 2 1 2 1 Z " fill="#000000" transform="translate(273,75)"/>
<path d="M0 0 C2 1 2 1 2 1 Z " fill="#000000" transform="translate(262,75)"/>
<path d="M0 0 C2 1 2 1 2 1 Z " fill="#000000" transform="translate(234,75)"/>
<path d="M0 0 C2 1 2 1 2 1 Z " fill="#000000" transform="translate(216,75)"/>
<path d="M0 0 C2 1 2 1 2 1 Z " fill="#000000" transform="translate(212,75)"/>
<path d="M0 0 C2 1 2 1 2 1 Z " fill="#000000" transform="translate(52,75)"/>
<path d="M0 0 C2 1 2 1 2 1 Z " fill="#000000" transform="translate(249,73)"/>
<path d="M0 0 C2 1 2 1 2 1 Z " fill="#000000" transform="translate(67,72)"/>
<path d="" fill="#000000" transform="translate(0,0)"/>
<path d="M0 0 C2 1 2 1 2 1 Z " fill="#000000" transform="translate(291,66)"/>
<path d="M0 0 C2 1 2 1 2 1 Z " fill="#000000" transform="translate(269,66)"/>
<path d="M0 0 C2 1 2 1 2 1 Z " fill="#000000" transform="translate(169,66)"/>
<path d="M0 0 C2 1 2 1 2 1 Z " fill="#000000" transform="translate(288,65)"/>
<path d="M0 0 C2 1 2 1 2 1 Z " fill="#000000" transform="translate(266,65)"/>
<path d="M0 0 C2 1 2 1 2 1 Z " fill="#000000" transform="translate(290,64)"/>
<path d="M0 0 C2 1 2 1 2 1 Z " fill="#000000" transform="translate(268,64)"/>
<path d="M0 0 C2 1 2 1 2 1 Z " fill="#000000" transform="translate(292,63)"/>
<path d="M0 0 C2 1 2 1 2 1 Z " fill="#000000" transform="translate(270,63)"/>
<path d="" fill="#000000" transform="translate(0,0)"/>
<path d="M0 0 C2 1 2 1 2 1 Z " fill="#000000" transform="translate(295,61)"/>
<path d="M0 0 C2 1 2 1 2 1 Z " fill="#000000" transform="translate(299,60)"/>
<path d="M0 0 C2 1 2 1 2 1 Z " fill="#000000" transform="translate(172,57)"/>
<path d="M0 0 C2 1 2 1 2 1 Z " fill="#000000" transform="translate(328,56)"/>
<path d="" fill="#000000" transform="translate(0,0)"/>
<path d="M0 0 C2 1 2 1 2 1 Z " fill="#000000" transform="translate(286,47)"/>
<path d="M0 0 C2 1 2 1 2 1 Z " fill="#000000" transform="translate(198,47)"/>
<path d="M0 0 C2 1 2 1 2 1 Z " fill="#000000" transform="translate(166,47)"/>
<path d="M0 0 C2 1 2 1 2 1 Z " fill="#000000" transform="translate(135,47)"/>
<path d="M0 0 C2 1 2 1 2 1 Z " fill="#000000" transform="translate(188,46)"/>
<path d="M0 0 C2 1 2 1 2 1 Z " fill="#000000" transform="translate(289,45)"/>
<path d="M0 0 C2 1 2 1 2 1 Z " fill="#000000" transform="translate(239,45)"/>
<path d="M0 0 C2 1 2 1 2 1 Z " fill="#000000" transform="translate(162,42)"/>
<path d="" fill="#000000" transform="translate(0,0)"/>
<path d="" fill="#000000" transform="translate(0,0)"/>
<path d="" fill="#000000" transform="translate(0,0)"/>
<path d="" fill="#000000" transform="translate(0,0)"/>
<path d="M0 0 C2 1 2 1 2 1 Z " fill="#000000" transform="translate(169,40)"/>
<path d="M0 0 C2 1 2 1 2 1 Z " fill="#000000" transform="translate(67,37)"/>
<path d="" fill="#000000" transform="translate(0,0)"/>
<path d="M0 0 C2 1 2 1 2 1 Z " fill="#000000" transform="translate(146,32)"/>
<path d="M0 0 C2 1 2 1 2 1 Z " fill="#000000" transform="translate(226,28)"/>
<path d="" fill="#000000" transform="translate(0,0)"/>
<path d="M0 0 C2 1 2 1 2 1 Z " fill="#000000" transform="translate(312,27)"/>
<path d="M0 0 C2 1 2 1 2 1 Z " fill="#000000" transform="translate(36,26)"/>
<path d="M0 0 C2 1 2 1 2 1 Z " fill="#000000" transform="translate(45,24)"/>
<path d="M0 0 C2 1 2 1 2 1 Z " fill="#000000" transform="translate(52,23)"/>
<path d="M0 0 C2 1 2 1 2 1 Z " fill="#000000" transform="translate(47,23)"/>
<path d="M0 0 C2 1 2 1 2 1 Z " fill="#000000" transform="translate(74,18)"/>
<path d="M0 0 C2 1 2 1 2 1 Z " fill="#000000" transform="translate(27,16)"/>
<path d="M0 0 C2 1 2 1 2 1 Z " fill="#000000" transform="translate(70,15)"/>
<path d="M0 0 C2 1 2 1 2 1 Z " fill="#000000" transform="translate(30,14)"/>
<path d="M0 0 C2 1 2 1 2 1 Z " fill="#000000" transform="translate(67,13)"/>
<path d="M0 0 C2 1 2 1 2 1 Z " fill="#000000" transform="translate(64,12)"/>
<path d="M0 0 C2 1 2 1 2 1 Z " fill="#000000" transform="translate(145,11)"/>
<path d="M0 0 C2 1 2 1 2 1 Z " fill="#000000" transform="translate(62,11)"/>
<path d="M0 0 C2 1 2 1 2 1 Z " fill="#000000" transform="translate(60,10)"/>
<path d="" fill="#000000" transform="translate(0,0)"/>
<path d="" fill="#000000" transform="translate(0,0)"/>
<path d="" fill="#000000" transform="translate(0,0)"/>
<path d="" fill="#000000" transform="translate(0,0)"/>
<path d="" fill="#000000" transform="translate(0,0)"/>
<path d="" fill="#000000" transform="translate(0,0)"/>
<path d="" fill="#000000" transform="translate(0,0)"/>
<path d="" fill="#000000" transform="translate(0,0)"/>
<path d="" fill="#000000" transform="translate(0,0)"/>
<path d="" fill="#000000" transform="translate(0,0)"/>
<path d="" fill="#000000" transform="translate(0,0)"/>
<path d="" fill="#000000" transform="translate(0,0)"/>
<path d="" fill="#000000" transform="translate(0,0)"/>
<path d="" fill="#000000" transform="translate(0,0)"/>
<path d="" fill="#000000" transform="translate(0,0)"/>
<path d="" fill="#000000" transform="translate(0,0)"/>
<path d="" fill="#000000" transform="translate(0,0)"/>
<path d="" fill="#000000" transform="translate(0,0)"/>
<path d="" fill="#000000" transform="translate(0,0)"/>
<path d="" fill="#000000" transform="translate(0,0)"/>
<path d="" fill="#000000" transform="translate(0,0)"/>
<path d="" fill="#000000" transform="translate(0,0)"/>
<path d="" fill="#000000" transform="translate(0,0)"/>
<path d="" fill="#000000" transform="translate(0,0)"/>
<path d="" fill="#000000" transform="translate(0,0)"/>
<path d="" fill="#000000" transform="translate(0,0)"/>
<path d="" fill="#000000" transform="translate(0,0)"/>
<path d="" fill="#000000" transform="translate(0,0)"/>
<path d="" fill="#000000" transform="translate(0,0)"/>
<path d="" fill="#000000" transform="translate(0,0)"/>
<path d="" fill="#000000" transform="translate(0,0)"/>
<path d="" fill="#000000" transform="translate(0,0)"/>
<path d="" fill="#000000" transform="translate(0,0)"/>
<path d="" fill="#000000" transform="translate(0,0)"/>
<path d="" fill="#000000" transform="translate(0,0)"/>
<path d="" fill="#000000" transform="translate(0,0)"/>
<path d="" fill="#000000" transform="translate(0,0)"/>
<path d="" fill="#000000" transform="translate(0,0)"/>
<path d="" fill="#000000" transform="translate(0,0)"/>
<path d="" fill="#000000" transform="translate(0,0)"/>
<path d="" fill="#000000" transform="translate(0,0)"/>
<path d="" fill="#000000" transform="translate(0,0)"/>
<path d="" fill="#000000" transform="translate(0,0)"/>
<path d="" fill="#000000" transform="translate(0,0)"/>
<path d="" fill="#000000" transform="translate(0,0)"/>
<path d="" fill="#000000" transform="translate(0,0)"/>
<path d="" fill="#000000" transform="translate(0,0)"/>
<path d="" fill="#000000" transform="translate(0,0)"/>
<path d="" fill="#000000" transform="translate(0,0)"/>
<path d="" fill="#000000" transform="translate(0,0)"/>
<path d="" fill="#000000" transform="translate(0,0)"/>
<path d="" fill="#000000" transform="translate(0,0)"/>
<path d="" fill="#000000" transform="translate(0,0)"/>
<path d="" fill="#000000" transform="translate(0,0)"/>
<path d="" fill="#000000" transform="translate(0,0)"/>
<path d="" fill="#000000" transform="translate(0,0)"/>
<path d="" fill="#000000" transform="translate(0,0)"/>
<path d="" fill="#000000" transform="translate(0,0)"/>
<path d="" fill="#000000" transform="translate(0,0)"/>
<path d="" fill="#000000" transform="translate(0,0)"/>
<path d="" fill="#000000" transform="translate(0,0)"/>
<path d="" fill="#000000" transform="translate(0,0)"/>
<path d="" fill="#000000" transform="translate(0,0)"/>
<path d="" fill="#000000" transform="translate(0,0)"/>
<path d="" fill="#000000" transform="translate(0,0)"/>
<path d="" fill="#000000" transform="translate(0,0)"/>
<path d="" fill="#000000" transform="translate(0,0)"/>
<path d="" fill="#000000" transform="translate(0,0)"/>
<path d="" fill="#000000" transform="translate(0,0)"/>
<path d="" fill="#000000" transform="translate(0,0)"/>
<path d="" fill="#000000" transform="translate(0,0)"/>
<path d="" fill="#000000" transform="translate(0,0)"/>
<path d="" fill="#000000" transform="translate(0,0)"/>
<path d="" fill="#000000" transform="translate(0,0)"/>
<path d="" fill="#000000" transform="translate(0,0)"/>
<path d="" fill="#000000" transform="translate(0,0)"/>
<path d="" fill="#000000" transform="translate(0,0)"/>
<path d="" fill="#000000" transform="translate(0,0)"/>
<path d="" fill="#000000" transform="translate(0,0)"/>
<path d="" fill="#000000" transform="translate(0,0)"/>
<path d="" fill="#000000" transform="translate(0,0)"/>
<path d="" fill="#000000" transform="translate(0,0)"/>
<path d="" fill="#000000" transform="translate(0,0)"/>
<path d="" fill="#000000" transform="translate(0,0)"/>
<path d="" fill="#000000" transform="translate(0,0)"/>
<path d="" fill="#000000" transform="translate(0,0)"/>
<path d="" fill="#000000" transform="translate(0,0)"/>
<path d="" fill="#000000" transform="translate(0,0)"/>
<path d="" fill="#000000" transform="translate(0,0)"/>
<path d="" fill="#000000" transform="translate(0,0)"/>
<path d="" fill="#000000" transform="translate(0,0)"/>
<path d="" fill="#000000" transform="translate(0,0)"/>
<path d="" fill="#000000" transform="translate(0,0)"/>
<path d="" fill="#000000" transform="translate(0,0)"/>
<path d="" fill="#000000" transform="translate(0,0)"/>
<path d="" fill="#000000" transform="translate(0,0)"/>
<path d="" fill="#000000" transform="translate(0,0)"/>
<path d="" fill="#000000" transform="translate(0,0)"/>
<path d="" fill="#000000" transform="translate(0,0)"/>
<path d="" fill="#000000" transform="translate(0,0)"/>
<path d="" fill="#000000" transform="translate(0,0)"/>
<path d="" fill="#000000" transform="translate(0,0)"/>
<path d="" fill="#000000" transform="translate(0,0)"/>
<path d="" fill="#000000" transform="translate(0,0)"/>
<path d="" fill="#000000" transform="translate(0,0)"/>
<path d="" fill="#000000" transform="translate(0,0)"/>
<path d="" fill="#000000" transform="translate(0,0)"/>
<path d="" fill="#000000" transform="translate(0,0)"/>
<path d="" fill="#000000" transform="translate(0,0)"/>
<path d="" fill="#000000" transform="translate(0,0)"/>
<path d="" fill="#000000" transform="translate(0,0)"/>
<path d="" fill="#000000" transform="translate(0,0)"/>
<path d="" fill="#000000" transform="translate(0,0)"/>
<path d="" fill="#000000" transform="translate(0,0)"/>
<path d="" fill="#000000" transform="translate(0,0)"/>
<path d="" fill="#000000" transform="translate(0,0)"/>
<path d="" fill="#000000" transform="translate(0,0)"/>
<path d="" fill="#000000" transform="translate(0,0)"/>
<path d="" fill="#000000" transform="translate(0,0)"/>
<path d="" fill="#000000" transform="translate(0,0)"/>
<path d="" fill="#000000" transform="translate(0,0)"/>
<path d="" fill="#000000" transform="translate(0,0)"/>
<path d="" fill="#000000" transform="translate(0,0)"/>
<path d="" fill="#000000" transform="translate(0,0)"/>
<path d="" fill="#000000" transform="translate(0,0)"/>
<path d="" fill="#000000" transform="translate(0,0)"/>
<path d="" fill="#000000" transform="translate(0,0)"/>
<path d="" fill="#000000" transform="translate(0,0)"/>
<path d="" fill="#000000" transform="translate(0,0)"/>
<path d="" fill="#000000" transform="translate(0,0)"/>
<path d="" fill="#000000" transform="translate(0,0)"/>
<path d="" fill="#000000" transform="translate(0,0)"/>
<path d="" fill="#000000" transform="translate(0,0)"/>
<path d="" fill="#000000" transform="translate(0,0)"/>
<path d="" fill="#000000" transform="translate(0,0)"/>
<path d="" fill="#000000" transform="translate(0,0)"/>
<path d="" fill="#000000" transform="translate(0,0)"/>
<path d="" fill="#000000" transform="translate(0,0)"/>
<path d="" fill="#000000" transform="translate(0,0)"/>
<path d="" fill="#000000" transform="translate(0,0)"/>
<path d="" fill="#000000" transform="translate(0,0)"/>
<path d="" fill="#000000" transform="translate(0,0)"/>
<path d="" fill="#000000" transform="translate(0,0)"/>
<path d="" fill="#000000" transform="translate(0,0)"/>
<path d="" fill="#000000" transform="translate(0,0)"/>
<path d="" fill="#000000" transform="translate(0,0)"/>
<path d="" fill="#000000" transform="translate(0,0)"/>
<path d="" fill="#000000" transform="translate(0,0)"/>
<path d="" fill="#000000" transform="translate(0,0)"/>
<path d="" fill="#000000" transform="translate(0,0)"/>
<path d="" fill="#000000" transform="translate(0,0)"/>
<path d="" fill="#000000" transform="translate(0,0)"/>
<path d="" fill="#000000" transform="translate(0,0)"/>
<path d="" fill="#000000" transform="translate(0,0)"/>
<path d="" fill="#000000" transform="translate(0,0)"/>
<path d="" fill="#000000" transform="translate(0,0)"/>
<path d="" fill="#000000" transform="translate(0,0)"/>
<path d="" fill="#000000" transform="translate(0,0)"/>
<path d="" fill="#000000" transform="translate(0,0)"/>
<path d="" fill="#000000" transform="translate(0,0)"/>
<path d="" fill="#000000" transform="translate(0,0)"/>
<path d="" fill="#000000" transform="translate(0,0)"/>
<path d="" fill="#000000" transform="translate(0,0)"/>
<path d="" fill="#000000" transform="translate(0,0)"/>
<path d="" fill="#000000" transform="translate(0,0)"/>
<path d="" fill="#000000" transform="translate(0,0)"/>
<path d="" fill="#000000" transform="translate(0,0)"/>
<path d="" fill="#000000" transform="translate(0,0)"/>
<path d="" fill="#000000" transform="translate(0,0)"/>
<path d="" fill="#000000" transform="translate(0,0)"/>
<path d="" fill="#000000" transform="translate(0,0)"/>
<path d="" fill="#000000" transform="translate(0,0)"/>
<path d="" fill="#000000" transform="translate(0,0)"/>
<path d="" fill="#000000" transform="translate(0,0)"/>
<path d="" fill="#000000" transform="translate(0,0)"/>
<path d="" fill="#000000" transform="translate(0,0)"/>
<path d="" fill="#000000" transform="translate(0,0)"/>
<path d="" fill="#000000" transform="translate(0,0)"/>
<path d="" fill="#000000" transform="translate(0,0)"/>
<path d="" fill="#000000" transform="translate(0,0)"/>
<path d="" fill="#000000" transform="translate(0,0)"/>
<path d="" fill="#000000" transform="translate(0,0)"/>
<path d="" fill="#000000" transform="translate(0,0)"/>
<path d="" fill="#000000" transform="translate(0,0)"/>
<path d="" fill="#000000" transform="translate(0,0)"/>
<path d="" fill="#000000" transform="translate(0,0)"/>
<path d="" fill="#000000" transform="translate(0,0)"/>
<path d="" fill="#000000" transform="translate(0,0)"/>
<path d="" fill="#000000" transform="translate(0,0)"/>
<path d="" fill="#000000" transform="translate(0,0)"/>
<path d="" fill="#000000" transform="translate(0,0)"/>
<path d="" fill="#000000" transform="translate(0,0)"/>
<path d="" fill="#000000" transform="translate(0,0)"/>
<path d="" fill="#000000" transform="translate(0,0)"/>
<path d="" fill="#000000" transform="translate(0,0)"/>
<path d="" fill="#000000" transform="translate(0,0)"/>
<path d="" fill="#000000" transform="translate(0,0)"/>
<path d="" fill="#000000" transform="translate(0,0)"/>
<path d="" fill="#000000" transform="translate(0,0)"/>
<path d="" fill="#000000" transform="translate(0,0)"/>
<path d="" fill="#000000" transform="translate(0,0)"/>
<path d="" fill="#000000" transform="translate(0,0)"/>
<path d="" fill="#000000" transform="translate(0,0)"/>
<path d="" fill="#000000" transform="translate(0,0)"/>
<path d="" fill="#000000" transform="translate(0,0)"/>
<path d="" fill="#000000" transform="translate(0,0)"/>
<path d="" fill="#000000" transform="translate(0,0)"/>
<path d="" fill="#000000" transform="translate(0,0)"/>
<path d="" fill="#000000" transform="translate(0,0)"/>
<path d="" fill="#000000" transform="translate(0,0)"/>
<path d="" fill="#000000" transform="translate(0,0)"/>
<path d="" fill="#000000" transform="translate(0,0)"/>
<path d="" fill="#000000" transform="translate(0,0)"/>
<path d="" fill="#000000" transform="translate(0,0)"/>
</svg>
